<?xml version="1.0" standalone="no"?><svg data-noselect="" 
  viewBox="133 -42.37782360857051 798.50006103516 599" 
  width="798.50006103516" 
  height="599" 
  ref="svg_canvas" 
  preserveAspectRatio="none" 
  version="1.1" xmlns="http://www.w3.org/2000/svg" 
  style="background: #ffffff;">
    <defs></defs>
    <g id="shape_aZfcaSDhDl" class=""  ref="shape_aZfcaSDhDl" key="shape_aZfcaSDhDl" transform="translate(213,189.40002441406) rotate(0,53,49.796608437758) scale(1,1)" style="cursor:move;display:inline;opacity:1;" filter="">
            <g style="display:inline"><rect fill="rgba(0,0,0,0)" width="126" height="119.59321687551525" x="-10" y="-10"></rect><svg version="1.1" id="图层_1" xmlns="http://www.w3.org/2000/svg" xmlns:xlink="http://www.w3.org/1999/xlink" x="0px" y="0px" width="106" height="99.59321687551525" viewBox="1.2480000257492065 9.000995635986328 196.83499145507812 184.93801879882812" style="enable-background:new 0 0 200 200;" xml:space="preserve" preserveAspectRatio="none" data-parent="shape_aZfcaSDhDl">
<g>
	<path style="" d="M119.871,111.612c-44.78,19.394-90.659,51.065-102.827,59.668c-3.049-2.992-5.838-6.291-8.326-9.89
		c-1.763-2.55-3.327-5.192-4.704-7.906c14.9-10.547,61.822-35.337,61.822-35.337C40.848,111.249,11.45,96.995,1.248,91.871
		c2.358-7.124,5.566-14.186,9.573-21.032C69.401,102.254,119.871,111.612,119.871,111.612z" fill="#113E99"></path>
	<path style="" d="M120.636,99.477C86.137,85.852,63.45,73.503,15.712,64.259c4.194-5.832,9-11.443,14.373-16.719
		c13.126,2.182,34.788,8.156,50.77,12.514c0,0-12.559-20.46-18.697-36.023c6.586-3.514,13.307-6.404,20.057-8.683
		C90.609,36.93,108.383,73.707,120.636,99.477z" fill="#F8B72B"></path>
	<path style="" d="M176.484,29.086c-6.546,9.04-31.874,44.196-44.383,70.029c0,0-18.867-58.591-38.965-86.912
		c8.212-1.961,16.385-3.026,24.354-3.202c6.064,11.783,16.974,33.847,21.367,48.22l22.614-38.608
		C166.929,21.474,171.967,24.966,176.484,29.086z" fill="#113E99"></path>
	<path style="" d="M144.054,172.238c-4.001,2.635-8.082,5.033-12.208,7.186l-6.212-11.777
		c0,0-9.544,12.061-17.677,21.44c-8.184,2.409-16.385,3.911-24.416,4.528c8.365-7.68,31.512-39.537,48.276-69.706
		C131.818,123.91,133.994,151.154,144.054,172.238z" fill="#113E99"></path>
	<path style="" d="M198.083,93.118c-0.742,5.384-1.989,10.802-3.718,16.181c-18.756-4.698-39.252-6.204-54.896-6.642
		c9.614-8.657,31.784-34.79,48.452-60.02c3.775,5.9,6.546,12.242,8.36,18.867l-26.207,27.408L198.083,93.118z" fill="#F8B72B"></path>
	<path style="" d="M126.859,119.801c-21.401,25.266-34.861,43.657-51.105,74.132c-0.187,0.006-0.374,0.006-0.561,0.006
		c-6.625,0-13.092-0.623-19.292-1.859l18.794-24.303l-34.068,19.78c-6.665-2.686-12.837-6.212-18.352-10.576
		C57.063,161.617,97.467,138.096,126.859,119.801z" fill="#F8B72B"></path>
</g>
</svg></g>
        </g><g id="shape_S4wjw4WdU5" class="brand_slogan"  ref="shape_S4wjw4WdU5" key="shape_S4wjw4WdU5" transform="translate(297.36457716419,301.03928439017545) rotate(0,76.4599640877,12.580012381659506) scale(1,1)" style="cursor:move;display:inline;opacity:1;" filter="">
            <g style="display:inline"><svg xmlns="http://www.w3.org/2000/svg" version="1.1" xmlns:xlink="http://www.w3.org/1999/xlink" width="152.9199281754" height="22.45006319392916" viewBox="0 0 185.9199281754 27.294769140625" data-parent="shape_S4wjw4WdU5"><rect fill="rgba(0,0,0,0)" width="185.9199281754" height="27.294769140625"></rect><g data-width="160.07938837890626" transform=""><path d="M1.20-2.84L9.34-2.84Q11.43-2.84 12.92-4.32L12.92-4.32Q14.40-5.80 14.40-7.91L14.40-7.91Q14.40-10.00 12.92-11.48L12.92-11.48Q12.60-11.80 12.24-12.06L12.24-12.06Q13.48-13.40 13.48-15.27L13.48-15.27Q13.48-17.23 12.09-18.63L12.09-18.63Q10.70-20.02 8.72-20.02L8.72-20.02L1.20-20.02L1.20-2.84ZM3.66-10.50L9.34-10.50Q10.42-10.50 11.18-9.75L11.18-9.75Q11.95-8.98 11.95-7.91L11.95-7.91Q11.95-6.82 11.18-6.05L11.18-6.05Q10.42-5.29 9.34-5.29L9.34-5.29L3.66-5.29L3.66-10.50ZM3.66-17.57L8.72-17.57Q9.67-17.57 10.35-16.89L10.35-16.89Q11.02-16.22 11.02-15.27L11.02-15.27Q11.02-14.31 10.35-13.63L10.35-13.63Q9.67-12.96 8.72-12.96L8.72-12.96L3.66-12.96L3.66-17.57Z" transform="translate(0 20) " fill="#113E99" stroke="#113E99" stroke-linecap="square" stroke-linejoin="square" stroke-width="0.041" data-glyph-w="16.384170166015625" data-glyph-h="25.67687568359375" data-glyph-ascender="20.6473845703125" data-glyph-descender="-5.029491113281249"></path><path d="M8.22-9.59L3.66-9.59L3.66-2.84L1.20-2.84L1.20-20.02L9.49-20.02Q11.65-20.02 13.18-18.49L13.18-18.49Q14.70-16.97 14.70-14.80L14.70-14.80Q14.70-12.65 13.18-11.12L13.18-11.12Q12.24-10.18 11.06-9.82L11.06-9.82L15.93-2.84L12.95-2.84L8.22-9.59ZM9.49-17.57L3.66-17.57L3.66-12.04L9.49-12.04Q10.64-12.04 11.44-12.85L11.44-12.85Q12.25-13.66 12.25-14.80L12.25-14.80Q12.25-15.94 11.44-16.76L11.44-16.76Q10.64-17.57 9.49-17.57L9.49-17.57Z" transform="translate(16.384170166015625 20) " fill="#113E99" stroke="#113E99" stroke-linecap="square" stroke-linejoin="square" stroke-width="0.041" data-glyph-w="16.68497705078125" data-glyph-h="25.67687568359375" data-glyph-ascender="20.6473845703125" data-glyph-descender="-5.029491113281249"></path><path d="M12.81-7.44L4.86-7.44L2.91-2.84L0.24-2.84L7.53-20.02L10.13-20.02L17.42-2.84L14.76-2.84L12.81-7.44ZM5.91-9.89L11.77-9.89L8.83-16.80L5.91-9.89Z" transform="translate(33.06914721679688 20) " fill="#113E99" stroke="#113E99" stroke-linecap="square" stroke-linejoin="square" stroke-width="0.041" data-glyph-w="18.9229802734375" data-glyph-h="25.67687568359375" data-glyph-ascender="20.6473845703125" data-glyph-descender="-5.029491113281249"></path><path d="M3.63-20.02L1.20-20.02L1.20-2.84L3.66-2.84L3.66-15.61L12.27-2.84L14.70-2.84L14.70-20.02L12.25-20.02L12.25-7.26L3.63-20.02Z" transform="translate(51.99212749023438 20) " fill="#113E99" stroke="#113E99" stroke-linecap="square" stroke-linejoin="square" stroke-width="0.041" data-glyph-w="17.16626806640625" data-glyph-h="25.67687568359375" data-glyph-ascender="20.6473845703125" data-glyph-descender="-5.029491113281249"></path><path d="M8.27-2.84L1.20-2.84L1.20-20.02L8.27-20.02Q11.44-20.02 13.69-17.51L13.69-17.51Q15.93-14.99 15.93-11.43L15.93-11.43Q15.93-7.87 13.69-5.35L13.69-5.35Q11.44-2.84 8.27-2.84L8.27-2.84ZM8.27-17.57L3.66-17.57L3.66-5.29L8.27-5.29Q10.42-5.29 11.95-7.09L11.95-7.09Q13.48-8.89 13.48-11.43L13.48-11.43Q13.48-13.97 11.95-15.77L11.95-15.77Q10.42-17.57 8.27-17.57L8.27-17.57Z" transform="translate(69.15839555664063 20) " fill="#113E99" stroke="#113E99" stroke-linecap="square" stroke-linejoin="square" stroke-width="0.041" data-glyph-w="17.912269140625" data-glyph-h="25.67687568359375" data-glyph-ascender="20.6473845703125" data-glyph-descender="-5.029491113281249"></path><path d="M3.63-20.02L1.20-20.02L1.20-2.84L3.66-2.84L3.66-15.61L12.27-2.84L14.70-2.84L14.70-20.02L12.25-20.02L12.25-7.26L3.63-20.02Z" transform="translate(87.07066469726563 20) " fill="#113E99" stroke="#113E99" stroke-linecap="square" stroke-linejoin="square" stroke-width="0.041" data-glyph-w="17.16626806640625" data-glyph-h="25.67687568359375" data-glyph-ascender="20.6473845703125" data-glyph-descender="-5.029491113281249"></path><path d="M12.81-7.44L4.86-7.44L2.91-2.84L0.24-2.84L7.53-20.02L10.13-20.02L17.42-2.84L14.76-2.84L12.81-7.44ZM5.91-9.89L11.77-9.89L8.83-16.80L5.91-9.89Z" transform="translate(104.23693276367187 20) " fill="#113E99" stroke="#113E99" stroke-linecap="square" stroke-linejoin="square" stroke-width="0.041" data-glyph-w="18.9229802734375" data-glyph-h="25.67687568359375" data-glyph-ascender="20.6473845703125" data-glyph-descender="-5.029491113281249"></path><path d="M9.04-8.05L3.66-15.73L3.66-2.84L1.20-2.84L1.20-20.02L3.66-20.02L10.10-10.82L16.54-20.02L19.00-20.02L19.00-2.84L16.54-2.84L16.54-15.75L11.15-8.05L9.04-8.05Z" transform="translate(123.15991303710938 20) " fill="#113E99" stroke="#113E99" stroke-linecap="square" stroke-linejoin="square" stroke-width="0.041" data-glyph-w="21.461790380859373" data-glyph-h="25.67687568359375" data-glyph-ascender="20.6473845703125" data-glyph-descender="-5.029491113281249"></path><path d="M1.20-20.02L13.48-20.02L13.48-17.57L3.66-17.57L3.66-12.66L13.48-12.66L13.48-10.20L3.66-10.20L3.66-5.29L13.48-5.29L13.48-2.84L1.20-2.84L1.20-20.02Z" transform="translate(144.62170341796875 20) " fill="#113E99" stroke="#113E99" stroke-linecap="square" stroke-linejoin="square" stroke-width="0.041" data-glyph-w="15.4576849609375" data-glyph-h="25.67687568359375" data-glyph-ascender="20.6473845703125" data-glyph-descender="-5.029491113281249"></path></g></svg></g>
        </g><g id="shape_aYiMszNdYU" class="brand_name"  ref="shape_aYiMszNdYU" key="shape_aYiMszNdYU" transform="translate(232.48006103516,63.38857712584999) rotate(0,222.02,207.38192382923302) scale(1,1)" style="cursor:move;display:inline;opacity:1;" filter="">
            <g style="display:inline"><svg xmlns="http://www.w3.org/2000/svg" version="1.1" xmlns:xlink="http://www.w3.org/1999/xlink" width="796.0799999999999" height="414.51636" viewBox="0 0 796.0799999999999 414.51636" preserveAspectRatio="none" data-parent="shape_aYiMszNdYU"><rect fill="rgba(0,0,0,0)" width="560" height="59" x="59.02" y="177.75818"></rect><g data-width="559.56862" transform="translate(59.02, 0)"><path d="M18.47-16.35L18.47-23.37L37.77-23.37L37.77 0L20.18 0Q15.64 0 12.95-0.68Q10.27-1.36 8.09-3.07L8.09-3.07Q1.89-7.85 1.89-19.54L1.89-19.54Q1.89-27.15 4.84-32.22L4.84-32.22Q7.02-35.94 10.80-37.65Q14.58-39.37 20.60-39.37L20.60-39.37L37.77-39.37L37.77-32.34L21.54-32.34Q16.29-32.34 13.93-30.04L13.93-30.04Q11.10-27.33 11.10-20.30L11.10-20.30Q11.10-16.70 11.83-13.81Q12.57-10.92 13.87-9.50L13.87-9.50Q14.99-8.20 16.97-7.61Q18.95-7.02 21.84-7.02L21.84-7.02L29.45-7.02L29.45-16.35L18.47-16.35Z" transform="translate(0 227.75818) skewX(0)" fill="#113E99" stroke="#113E99" stroke-width="0.098" data-glyph-w="40.78282" data-glyph-h="59.02" data-glyph-ascender="50.69818" data-glyph-descender="-8.32182"></path><path d="M19.42-39.37L33.52-39.37L33.52-32.34L22.60-32.34Q18.36-32.34 16.41-31.75Q14.46-31.16 13.16-29.45L13.16-29.45Q12.28-28.27 11.95-27.09Q11.63-25.91 11.39-23.08L11.39-23.08L33.52-23.08L33.52-16.05L11.39-16.05Q11.86-10.98 14.40-9.00Q16.94-7.02 23.02-7.02L23.02-7.02L33.52-7.02L33.52 0L22.60 0Q18.18 0 14.81-0.53L14.81-0.53Q9.50-1.42 6.37-5.19L6.37-5.19Q1.89-10.62 1.89-19.89L1.89-19.89Q1.89-30.16 8.20-35.88L8.20-35.88Q10.39-37.83 12.84-38.60Q15.29-39.37 19.42-39.37L19.42-39.37Z" transform="translate(40.78282 227.75818) skewX(0)" fill="#113E99" stroke="#113E99" stroke-width="0.098" data-glyph-w="36.12024" data-glyph-h="59.02" data-glyph-ascender="50.69818" data-glyph-descender="-8.32182"></path><path d="M21.31-39.60L21.31-39.60Q27.21-39.60 31.69-37.60L31.69-37.60Q36.95-35.18 39.07-29.51L39.07-29.51Q40.72-25.08 40.72-19.12L40.72-19.12Q40.72-13.10 38.72-8.68L38.72-8.68Q36.18-3.42 30.93-1.30L30.93-1.30Q27.03 0.24 21.96 0.24L21.96 0.24Q15.29 0.24 10.39-2.24L10.39-2.24Q6.26-4.31 4.07-8.73Q1.89-13.16 1.89-19.48L1.89-19.48Q1.89-30.75 7.50-35.53L7.50-35.53Q12.22-39.54 21.31-39.60ZM21.37-32.99L21.37-32.99Q15.58-32.99 13.10-29.21L13.10-29.21Q11.10-26.26 11.10-19.71L11.10-19.71Q11.10-12.81 13.57-9.56L13.57-9.56Q16.05-6.37 21.42-6.37L21.42-6.37Q26.62-6.37 29.07-9.62Q31.52-12.87 31.52-19.65L31.52-19.65Q31.52-25.85 29.51-29.10L29.51-29.10Q27.21-32.93 21.37-32.99Z" transform="translate(76.90306000000001 227.75818) skewX(0)" fill="#113E99" stroke="#113E99" stroke-width="0.098" data-glyph-w="42.61244" data-glyph-h="59.02" data-glyph-ascender="50.69818" data-glyph-descender="-8.32182"></path><path d="M19.12-14.93L12.39-14.93L12.39 0L4.01 0L4.01-39.37L23.25-39.37Q31.52-39.37 34.76-37.24L34.76-37.24Q37.01-35.83 38.22-33.49Q39.43-31.16 39.43-28.39L39.43-28.39Q39.43-22.78 36.59-19.71L36.59-19.71Q34.82-17.88 31.93-16.94L31.93-16.94Q34.23-16.11 35.41-15.20Q36.59-14.28 37.54-12.51L37.54-12.51Q38.24-11.10 38.57-9.80Q38.89-8.50 39.07-5.96L39.07-5.96Q39.43-1.71 40.02 0L40.02 0L30.63 0Q30.22-1.36 29.75-5.61L29.75-5.61Q29.45-9.03 28.54-10.86Q27.62-12.69 25.79-13.75L25.79-13.75Q23.49-14.99 19.12-14.93L19.12-14.93ZM12.39-32.34L12.39-21.96L24.14-21.96Q27.09-21.96 28.33-22.84L28.33-22.84Q30.22-24.14 30.22-27.39L30.22-27.39Q30.22-30.99 27.39-31.99L27.39-31.99Q26.38-32.34 24.14-32.34L24.14-32.34L12.39-32.34Z" transform="translate(119.5155 227.75818) skewX(0)" fill="#113E99" stroke="#113E99" stroke-width="0.098" data-glyph-w="42.140280000000004" data-glyph-h="59.02" data-glyph-ascender="50.69818" data-glyph-descender="-8.32182"></path><path d="M19.42-39.37L33.52-39.37L33.52-32.34L22.60-32.34Q18.36-32.34 16.41-31.75Q14.46-31.16 13.16-29.45L13.16-29.45Q12.28-28.27 11.95-27.09Q11.63-25.91 11.39-23.08L11.39-23.08L33.52-23.08L33.52-16.05L11.39-16.05Q11.86-10.98 14.40-9.00Q16.94-7.02 23.02-7.02L23.02-7.02L33.52-7.02L33.52 0L22.60 0Q18.18 0 14.81-0.53L14.81-0.53Q9.50-1.42 6.37-5.19L6.37-5.19Q1.89-10.62 1.89-19.89L1.89-19.89Q1.89-30.16 8.20-35.88L8.20-35.88Q10.39-37.83 12.84-38.60Q15.29-39.37 19.42-39.37L19.42-39.37Z" transform="translate(161.65578 227.75818) skewX(0)" fill="#113E99" stroke="#113E99" stroke-width="0.098" data-glyph-w="36.12024" data-glyph-h="59.02" data-glyph-ascender="50.69818" data-glyph-descender="-8.32182"></path><path d="M23.61 0L3.84 0L3.84-7.02L21.84-7.02Q26.15-7.02 27.56-7.85L27.56-7.85Q29.63-9.09 29.63-11.57L29.63-11.57Q29.63-14.46 27.21-15.76L27.21-15.76Q25.85-16.53 22.84-16.53L22.84-16.53L15.52-16.53Q8.85-16.53 5.90-18.95L5.90-18.95Q4.07-20.48 3.04-22.78Q2.01-25.08 2.01-27.74L2.01-27.74Q2.01-31.87 4.43-35.29L4.43-35.29Q6.79-38.60 11.98-39.19L11.98-39.19Q13.75-39.37 17.23-39.37L17.23-39.37L36.77-39.37L36.77-32.34L19.12-32.34Q15.17-32.28 13.87-31.99L13.87-31.99Q11.21-31.34 11.21-27.98L11.21-27.98Q11.21-25.14 13.46-24.20L13.46-24.20Q14.93-23.49 18.41-23.49L18.41-23.49L24.73-23.49Q29.57-23.49 31.93-22.66L31.93-22.66Q36.12-21.25 37.71-17.71L37.71-17.71Q38.95-14.87 38.95-11.63L38.95-11.63Q38.95-8.03 37.30-5.19L37.30-5.19Q35.00-1.18 30.40-0.35L30.40-0.35Q28.15 0 23.61 0L23.61 0Z" transform="translate(197.77602 227.75818) skewX(0)" fill="#113E99" stroke="#113E99" stroke-width="0.098" data-glyph-w="41.0189" data-glyph-h="59.02" data-glyph-ascender="50.69818" data-glyph-descender="-8.32182"></path><path d="M21.31-39.60L21.31-39.60Q27.21-39.60 31.69-37.60L31.69-37.60Q36.95-35.18 39.07-29.51L39.07-29.51Q40.72-25.08 40.72-19.12L40.72-19.12Q40.72-13.10 38.72-8.68L38.72-8.68Q36.18-3.42 30.93-1.30L30.93-1.30Q27.03 0.24 21.96 0.24L21.96 0.24Q15.29 0.24 10.39-2.24L10.39-2.24Q6.26-4.31 4.07-8.73Q1.89-13.16 1.89-19.48L1.89-19.48Q1.89-30.75 7.50-35.53L7.50-35.53Q12.22-39.54 21.31-39.60ZM21.37-32.99L21.37-32.99Q15.58-32.99 13.10-29.21L13.10-29.21Q11.10-26.26 11.10-19.71L11.10-19.71Q11.10-12.81 13.57-9.56L13.57-9.56Q16.05-6.37 21.42-6.37L21.42-6.37Q26.62-6.37 29.07-9.62Q31.52-12.87 31.52-19.65L31.52-19.65Q31.52-25.85 29.51-29.10L29.51-29.10Q27.21-32.93 21.37-32.99Z" transform="translate(238.79492 227.75818) skewX(0)" fill="#113E99" stroke="#113E99" stroke-width="0.098" data-glyph-w="42.61244" data-glyph-h="59.02" data-glyph-ascender="50.69818" data-glyph-descender="-8.32182"></path><path d="M3.54-39.37L11.86-39.37L11.86-15.76Q11.86-12.93 12.34-11.36Q12.81-9.80 13.93-8.68L13.93-8.68Q16.41-6.26 20.83-6.26L20.83-6.26Q23.67-6.26 25.76-7.23Q27.86-8.20 28.68-9.86L28.68-9.86Q29.51-11.51 29.51-15.76L29.51-15.76L29.51-39.37L37.89-39.37L37.89-16.17Q37.89-11.57 36.92-8.59Q35.94-5.61 33.94-3.78L33.94-3.78Q29.27 0.30 20.72 0.30L20.72 0.30Q11.57 0.30 7.38-3.72L7.38-3.72Q5.19-5.78 4.37-8.35Q3.54-10.92 3.54-15.58L3.54-15.58L3.54-39.37Z" transform="translate(281.40736 227.75818) skewX(0)" fill="#113E99" stroke="#113E99" stroke-width="0.098" data-glyph-w="41.491060000000004" data-glyph-h="59.02" data-glyph-ascender="50.69818" data-glyph-descender="-8.32182"></path><path d="M19.12-14.93L12.39-14.93L12.39 0L4.01 0L4.01-39.37L23.25-39.37Q31.52-39.37 34.76-37.24L34.76-37.24Q37.01-35.83 38.22-33.49Q39.43-31.16 39.43-28.39L39.43-28.39Q39.43-22.78 36.59-19.71L36.59-19.71Q34.82-17.88 31.93-16.94L31.93-16.94Q34.23-16.11 35.41-15.20Q36.59-14.28 37.54-12.51L37.54-12.51Q38.24-11.10 38.57-9.80Q38.89-8.50 39.07-5.96L39.07-5.96Q39.43-1.71 40.02 0L40.02 0L30.63 0Q30.22-1.36 29.75-5.61L29.75-5.61Q29.45-9.03 28.54-10.86Q27.62-12.69 25.79-13.75L25.79-13.75Q23.49-14.99 19.12-14.93L19.12-14.93ZM12.39-32.34L12.39-21.96L24.14-21.96Q27.09-21.96 28.33-22.84L28.33-22.84Q30.22-24.14 30.22-27.39L30.22-27.39Q30.22-30.99 27.39-31.99L27.39-31.99Q26.38-32.34 24.14-32.34L24.14-32.34L12.39-32.34Z" transform="translate(322.89842 227.75818) skewX(0)" fill="#113E99" stroke="#113E99" stroke-width="0.098" data-glyph-w="42.140280000000004" data-glyph-h="59.02" data-glyph-ascender="50.69818" data-glyph-descender="-8.32182"></path><path d="M21.90-7.02L33.94-7.02L33.94 0L20.18 0Q16.29 0 14.22-0.41L14.22-0.41Q6.96-1.83 3.90-8.50L3.90-8.50Q1.89-12.98 1.89-19.59L1.89-19.59Q1.89-27.50 4.96-32.46L4.96-32.46Q7.20-36.06 10.95-37.71Q14.70-39.37 20.60-39.37L20.60-39.37L33.94-39.37L33.94-32.34L21.54-32.34Q15.94-32.34 13.34-29.33L13.34-29.33Q11.15-26.85 11.15-20.36L11.15-20.36Q11.15-11.63 14.52-8.91L14.52-8.91Q16.88-7.02 21.90-7.02L21.90-7.02Z" transform="translate(365.0387 227.75818) skewX(0)" fill="#113E99" stroke="#113E99" stroke-width="0.098" data-glyph-w="35.76612" data-glyph-h="59.02" data-glyph-ascender="50.69818" data-glyph-descender="-8.32182"></path><path d="M19.42-39.37L33.52-39.37L33.52-32.34L22.60-32.34Q18.36-32.34 16.41-31.75Q14.46-31.16 13.16-29.45L13.16-29.45Q12.28-28.27 11.95-27.09Q11.63-25.91 11.39-23.08L11.39-23.08L33.52-23.08L33.52-16.05L11.39-16.05Q11.86-10.98 14.40-9.00Q16.94-7.02 23.02-7.02L23.02-7.02L33.52-7.02L33.52 0L22.60 0Q18.18 0 14.81-0.53L14.81-0.53Q9.50-1.42 6.37-5.19L6.37-5.19Q1.89-10.62 1.89-19.89L1.89-19.89Q1.89-30.16 8.20-35.88L8.20-35.88Q10.39-37.83 12.84-38.60Q15.29-39.37 19.42-39.37L19.42-39.37Z" transform="translate(400.80482 227.75818) skewX(0)" fill="#113E99" stroke="#113E99" stroke-width="0.098" data-glyph-w="36.12024" data-glyph-h="59.02" data-glyph-ascender="50.69818" data-glyph-descender="-8.32182"></path><path d="M27.62-39.37L35.94-39.37L35.94 0L27.62 0L27.62-16.29L12.39-16.29L12.39 0L4.01 0L4.01-39.37L12.39-39.37L12.39-23.31L27.62-23.31L27.62-39.37Z" transform="translate(436.92506000000003 227.75818) skewX(0)" fill="#113E99" stroke="#113E99" stroke-width="0.098" data-glyph-w="39.956540000000004" data-glyph-h="59.02" data-glyph-ascender="50.69818" data-glyph-descender="-8.32182"></path><path d="M3.54-39.37L11.86-39.37L11.86-15.76Q11.86-12.93 12.34-11.36Q12.81-9.80 13.93-8.68L13.93-8.68Q16.41-6.26 20.83-6.26L20.83-6.26Q23.67-6.26 25.76-7.23Q27.86-8.20 28.68-9.86L28.68-9.86Q29.51-11.51 29.51-15.76L29.51-15.76L29.51-39.37L37.89-39.37L37.89-16.17Q37.89-11.57 36.92-8.59Q35.94-5.61 33.94-3.78L33.94-3.78Q29.27 0.30 20.72 0.30L20.72 0.30Q11.57 0.30 7.38-3.72L7.38-3.72Q5.19-5.78 4.37-8.35Q3.54-10.92 3.54-15.58L3.54-15.58L3.54-39.37Z" transform="translate(476.88160000000005 227.75818) skewX(0)" fill="#113E99" stroke="#113E99" stroke-width="0.098" data-glyph-w="41.491060000000004" data-glyph-h="59.02" data-glyph-ascender="50.69818" data-glyph-descender="-8.32182"></path><path d="M25.79 0L4.01 0L4.01-39.37L26.26-39.37Q31.52-39.37 33.88-38.13L33.88-38.13Q36.65-36.77 38.07-33.58L38.07-33.58Q39.07-31.40 39.07-29.04L39.07-29.04Q39.07-25.97 37.45-23.31Q35.83-20.66 33.35-19.65L33.35-19.65Q39.07-17.06 39.07-10.39L39.07-10.39Q39.07-6.55 37.24-3.95L37.24-3.95Q35.65-1.71 33.17-0.86Q30.69 0 25.79 0L25.79 0ZM12.39-32.34L12.39-23.19L23.79-23.19Q25.61-23.19 26.41-23.37Q27.21-23.55 27.98-24.14L27.98-24.14Q29.81-25.56 29.81-28.03L29.81-28.03Q29.81-30.40 28.09-31.52L28.09-31.52Q26.85-32.34 23.96-32.34L23.96-32.34L12.39-32.34ZM12.39-16.17L12.39-7.02L23.79-7.02Q25.61-7.02 26.44-7.20Q27.27-7.38 27.98-7.97L27.98-7.97Q29.81-9.38 29.81-11.86L29.81-11.86Q29.81-14.22 28.09-15.35L28.09-15.35Q26.85-16.17 23.96-16.17L23.96-16.17L12.39-16.17Z" transform="translate(518.37266 227.75818) skewX(0)" fill="#113E99" stroke="#113E99" stroke-width="0.098" data-glyph-w="41.19596" data-glyph-h="59.02" data-glyph-ascender="50.69818" data-glyph-descender="-8.32182"></path></g></svg></g>
        </g>
  </svg>